# 3ds Max Wavefront OBJ Exporter v0.97b - (c)2007 guruware
# File Created: 06.03.2019 00:24:40

#
# object Plane001
#

v  -65.3159 -5.6949 23.9683
v  -53.3318 -5.6949 23.9683
v  -56.9059 -1.6963 10.3674
v  -65.3159 -5.6949 11.9842
v  -41.3476 -5.6949 23.9683
v  -46.5385 -1.6963 10.3674
v  -29.3634 -5.6949 23.9683
v  -35.3318 -3.6974 10.9270
v  26.1124 -5.6949 23.9683
v  24.4445 -1.3624 11.5562
v  -56.9059 -1.6963 -0.0000
v  -65.3159 -5.6949 -0.0000
v  -46.5385 -1.6963 -0.0000
v  -35.3318 -3.6974 -0.0000
v  24.4438 -1.3624 -0.0000
v  -56.9059 -3.6974 -10.3674
v  -65.3159 -5.6949 -11.9842
v  -46.5385 -3.6974 -10.3674
v  -35.3318 -3.6974 -10.9270
v  24.4445 -4.8863 -11.5562
v  -53.3318 -5.6949 -23.9683
v  -65.3159 -5.6949 -23.9683
v  -41.3476 -5.6949 -23.9683
v  -29.3634 -5.6949 -23.9683
v  26.1124 -5.6949 -23.9683
v  51.1902 -5.6949 23.9683
v  65.1015 -5.6949 23.9683
v  65.1015 -5.6949 11.9842
v  49.5159 -5.3849 11.8201
v  65.1015 -5.6949 -0.0000
v  49.5166 -3.6262 -0.0000
v  65.1015 -5.6949 -11.9842
v  49.5159 -3.6261 -11.8201
v  65.1015 -5.6949 -23.9683
v  51.1902 -5.6949 -23.9683
v  36.7224 -5.6949 23.9683
v  35.0499 -1.7214 11.7462
v  35.0502 0.0373 -0.0000
v  35.0499 -3.4865 -11.7462
v  36.7224 -5.6949 -23.9683
v  -73.4104 -7.7409 17.8486
v  -73.4104 -7.7409 35.6972
v  -59.9189 -7.7409 35.6972
v  -46.4274 -7.7409 35.6972
v  -32.9360 -7.7409 35.6972
v  73.4104 -7.7409 35.6972
v  73.4104 -7.7409 17.8486
v  29.5174 -7.7409 35.6972
v  -73.4104 -7.7409 0.0000
v  73.4104 -7.7409 0.0000
v  -73.4104 -7.7409 -17.8486
v  73.4104 -7.7409 -17.8486
v  -73.4104 -7.7409 -35.6972
v  -59.9189 -7.7409 -35.6972
v  -46.4274 -7.7409 -35.6972
v  -32.9360 -7.7409 -35.6972
v  73.4104 -7.7409 -35.6972
v  57.7494 -7.7409 -35.6972
v  57.7494 -7.7409 35.6972
v  29.5174 -7.7409 -35.6972
v  41.4618 -7.7409 35.6972
v  41.4618 -7.7409 -35.6972
v  -73.4104 -11.8581 17.8486
v  -73.4104 -11.8581 35.6972
v  -59.9189 -11.8581 35.6972
v  -46.4274 -11.8581 35.6972
v  -32.9360 -11.8581 35.6972
v  73.4104 -11.8581 35.6972
v  73.4104 -11.8581 17.8486
v  29.5174 -11.8581 35.6972
v  -73.4104 -11.8581 0.0000
v  73.4104 -11.8581 0.0000
v  -73.4104 -11.8581 -17.8486
v  73.4104 -11.8581 -17.8486
v  -73.4104 -11.8581 -35.6972
v  -59.9189 -11.8581 -35.6972
v  -46.4274 -11.8581 -35.6972
v  -32.9360 -11.8581 -35.6972
v  73.4104 -11.8581 -35.6972
v  57.7494 -11.8581 -35.6972
v  57.7494 -11.8581 35.6972
v  29.5174 -11.8581 -35.6972
v  41.4618 -11.8581 35.6972
v  41.4618 -11.8581 -35.6972
v  29.7017 19.6264 16.1838
v  41.8833 19.6264 16.1838
v  41.8833 19.6264 -14.8611
v  29.7017 19.6264 -14.8611
v  29.7017 -6.4154 16.1838
v  41.8833 -6.4154 16.1838
v  41.8833 -6.4154 -14.8611
v  29.7017 -6.4154 -14.8611
v  -53.7822 19.6264 16.1838
v  -41.6005 19.6264 16.1838
v  -41.6005 19.6264 -14.8611
v  -53.7822 19.6264 -14.8611
v  -53.7822 -6.4154 16.1838
v  -41.6005 -6.4154 16.1838
v  -41.6005 -6.4154 -14.8611
v  -53.7822 -6.4154 -14.8611
v  -66.0959 17.2111 19.2561
v  -66.0959 17.2111 13.1494
v  53.2074 17.2111 13.1494
v  53.2074 17.2111 19.2561
v  -66.0959 21.0239 19.2561
v  53.2074 21.0239 19.2561
v  53.2074 21.0239 13.1494
v  -66.0959 21.0239 13.1494
v  -66.0959 17.2111 11.6013
v  -66.0959 17.2111 5.4945
v  53.2074 17.2111 5.4945
v  53.2074 17.2111 11.6013
v  -66.0959 21.0239 11.6013
v  53.2074 21.0239 11.6013
v  53.2074 21.0239 5.4945
v  -66.0959 21.0239 5.4945
v  -66.0959 17.2111 3.9464
v  -66.0959 17.2111 -2.1603
v  53.2074 17.2111 -2.1603
v  53.2074 17.2111 3.9464
v  -66.0959 21.0239 3.9464
v  53.2074 21.0239 3.9464
v  53.2074 21.0239 -2.1603
v  -66.0959 21.0239 -2.1603
v  -66.0959 17.2111 -3.7084
v  -66.0959 17.2111 -9.8152
v  53.2074 17.2111 -9.8152
v  53.2074 17.2111 -3.7084
v  -66.0959 21.0239 -3.7084
v  53.2074 21.0239 -3.7084
v  53.2074 21.0239 -9.8152
v  -66.0959 21.0239 -9.8152
v  -66.0959 17.2111 -11.3633
v  -66.0959 17.2111 -17.4700
v  53.2074 17.2111 -17.4700
v  53.2074 17.2111 -11.3633
v  -66.0959 21.0239 -11.3633
v  53.2074 21.0239 -11.3633
v  53.2074 21.0239 -17.4700
v  -66.0959 21.0239 -17.4700
# 140 vertices

vn -0.1410 0.9842 0.1069
vn 0.0000 0.9738 0.2273
vn -0.1814 0.9784 0.0987
vn -0.3389 0.9408 -0.0000
vn 0.0202 0.9804 0.1962
vn 0.0756 0.9888 0.1285
vn -0.0113 0.9848 0.1735
vn 0.0569 0.9939 0.0948
vn 0.0031 0.9688 0.2480
vn 0.0033 0.9872 0.1592
vn -0.2165 0.9720 -0.0918
vn -0.3168 0.9482 -0.0245
vn 0.0648 0.9953 -0.0720
vn 0.0817 0.9966 -0.0093
vn -0.0653 0.9896 -0.1280
vn -0.1403 0.9789 -0.1488
vn -0.2042 0.9785 -0.0304
vn -0.0032 0.9857 -0.1687
vn 0.0273 0.9948 -0.0986
vn -0.0694 0.9819 -0.1764
vn -0.0167 0.9893 -0.1449
vn -0.0998 0.9932 -0.0601
vn 0.0000 0.9873 -0.1586
vn 0.0045 0.9878 -0.1559
vn -0.0161 0.9903 -0.1377
vn 0.0031 0.9954 0.0956
vn 0.0969 0.9935 0.0605
vn 0.1437 0.9895 0.0179
vn 0.0990 0.9882 0.1167
vn 0.1856 0.9826 -0.0000
vn 0.1400 0.9898 0.0260
vn 0.1677 0.9857 -0.0174
vn 0.0659 0.9945 -0.0809
vn 0.0969 0.9935 -0.0605
vn 0.0206 0.9887 -0.1483
vn 0.0365 0.9786 0.2025
vn 0.1084 0.9728 0.2045
vn 0.0561 0.9960 -0.0702
vn -0.0153 0.9821 -0.1880
vn 0.0013 0.9848 -0.1734
vn -0.2451 0.9695 -0.0000
vn -0.0962 0.9897 0.1062
vn 0.0000 0.9851 0.1718
vn -0.0000 0.9851 0.1718
vn 0.0957 0.9899 0.1049
vn 0.2391 0.9710 -0.0000
vn -0.0962 0.9897 -0.1062
vn 0.0000 0.9851 -0.1718
vn -0.0000 0.9851 -0.1718
vn 0.0957 0.9899 -0.1049
vn -1.0000 0.0000 -0.0000
vn 0.0000 0.0000 1.0000
vn 1.0000 0.0000 -0.0000
vn -0.0000 0.0000 1.0000
vn 0.0000 0.0000 -1.0000
vn -0.0000 0.0000 -1.0000
vn 0.0000 1.0000 -0.0000
vn 0.0000 -1.0000 -0.0000
# 58 vertex normals

vt 0.5750 0.2473 0.0000
vt 0.5253 0.2473 0.0000
vt 0.5402 0.1909 0.0000
vt 0.5750 0.1976 0.0000
vt 0.4757 0.2473 0.0000
vt 0.4972 0.1909 0.0000
vt 0.4260 0.2473 0.0000
vt 0.4507 0.1933 0.0000
vt 0.1961 0.2473 0.0000
vt 0.2030 0.1959 0.0000
vt 0.5402 0.1480 0.0000
vt 0.5750 0.1480 0.0000
vt 0.4972 0.1480 0.0000
vt 0.4507 0.1480 0.0000
vt 0.2030 0.1480 0.0000
vt 0.5402 0.1050 0.0000
vt 0.5750 0.0983 0.0000
vt 0.4972 0.1050 0.0000
vt 0.4507 0.1027 0.0000
vt 0.2030 0.1001 0.0000
vt 0.5253 0.0486 0.0000
vt 0.5750 0.0486 0.0000
vt 0.4757 0.0486 0.0000
vt 0.4260 0.0486 0.0000
vt 0.1961 0.0486 0.0000
vt 0.0921 0.2473 0.0000
vt 0.0344 0.2473 0.0000
vt 0.0344 0.1976 0.0000
vt 0.0990 0.1970 0.0000
vt 0.0344 0.1480 0.0000
vt 0.0990 0.1480 0.0000
vt 0.0344 0.0983 0.0000
vt 0.0990 0.0990 0.0000
vt 0.0344 0.0486 0.0000
vt 0.0921 0.0486 0.0000
vt 0.1521 0.2473 0.0000
vt 0.1590 0.1967 0.0000
vt 0.1590 0.1480 0.0000
vt 0.1590 0.0993 0.0000
vt 0.1521 0.0486 0.0000
vt 0.6086 0.2219 0.0000
vt 0.6086 0.2959 0.0000
vt 0.5527 0.2959 0.0000
vt 0.4967 0.2959 0.0000
vt 0.4408 0.2959 0.0000
vt 0.0000 0.2959 0.0000
vt 0.0000 0.2219 0.0000
vt 0.1819 0.2959 0.0000
vt 0.6086 0.1480 0.0000
vt 0.0000 0.1480 0.0000
vt 0.6086 0.0740 0.0000
vt 0.0000 0.0740 0.0000
vt 0.6086 0.0000 0.0000
vt 0.5527 0.0000 0.0000
vt 0.4967 0.0000 0.0000
vt 0.4408 0.0000 0.0000
vt 0.0000 0.0000 0.0000
vt 0.0649 0.0000 0.0000
vt 0.0649 0.2959 0.0000
vt 0.1819 0.0000 0.0000
vt 0.1324 0.2959 0.0000
vt 0.1324 0.0000 0.0000
vt 0.4627 0.9664 0.0000
vt 0.5359 0.9664 0.0000
vt 0.5359 0.9833 0.0000
vt 0.4627 0.9833 0.0000
vt 0.6955 0.6331 0.0000
vt 0.7508 0.6331 0.0000
vt 0.7508 0.6500 0.0000
vt 0.6955 0.6500 0.0000
vt 0.6402 0.6331 0.0000
vt 0.6402 0.6500 0.0000
vt 0.5848 0.6331 0.0000
vt 0.5848 0.6500 0.0000
vt 0.3682 0.9664 0.0000
vt 0.4415 0.9664 0.0000
vt 0.4415 0.9833 0.0000
vt 0.3682 0.9833 0.0000
vt 0.3286 0.6331 0.0000
vt 0.3286 0.6500 0.0000
vt 0.6091 0.9664 0.0000
vt 0.6091 0.9833 0.0000
vt 0.2950 0.9664 0.0000
vt 0.2950 0.9833 0.0000
vt 0.6823 0.9664 0.0000
vt 0.6823 0.9833 0.0000
vt 0.2218 0.9664 0.0000
vt 0.2218 0.9833 0.0000
vt 0.7556 0.9664 0.0000
vt 0.7556 0.9833 0.0000
vt 0.1486 0.5950 0.0000
vt 0.2039 0.5950 0.0000
vt 0.2039 0.6119 0.0000
vt 0.1486 0.6119 0.0000
vt 0.2593 0.5950 0.0000
vt 0.2593 0.6119 0.0000
vt 0.3146 0.5950 0.0000
vt 0.3146 0.6119 0.0000
vt 0.6866 0.5950 0.0000
vt 0.7508 0.5950 0.0000
vt 0.7508 0.6119 0.0000
vt 0.6866 0.6119 0.0000
vt 0.1486 0.9664 0.0000
vt 0.1486 0.9833 0.0000
vt 0.1486 0.6331 0.0000
vt 0.2128 0.6331 0.0000
vt 0.2128 0.6500 0.0000
vt 0.1486 0.6500 0.0000
vt 0.5708 0.5950 0.0000
vt 0.5708 0.6119 0.0000
vt 0.2796 0.6331 0.0000
vt 0.2796 0.6500 0.0000
vt 0.6198 0.5950 0.0000
vt 0.6198 0.6119 0.0000
vt 0.7784 0.2493 0.0000
vt 0.7784 0.1993 0.0000
vt 0.9058 0.1993 0.0000
vt 0.9058 0.2493 0.0000
vt 0.1068 0.7730 0.0000
vt 0.0000 0.7730 0.0000
vt 0.0000 0.7231 0.0000
vt 0.1068 0.7231 0.0000
vt 0.7572 0.1281 0.0000
vt 0.7572 0.2349 0.0000
vt 0.6298 0.2349 0.0000
vt 0.6298 0.1281 0.0000
vt 0.1068 0.8443 0.0000
vt 0.0000 0.8443 0.0000
vt 0.0000 0.7943 0.0000
vt 0.1068 0.7943 0.0000
vt 0.1273 0.5950 0.0000
vt 0.1273 0.7018 0.0000
vt 0.0000 0.7018 0.0000
vt 0.0000 0.5950 0.0000
vt 0.7784 0.1780 0.0000
vt 0.7784 0.1281 0.0000
vt 0.9058 0.1281 0.0000
vt 0.9058 0.1780 0.0000
vt 0.1068 0.9155 0.0000
vt 0.0000 0.9155 0.0000
vt 0.0000 0.8655 0.0000
vt 0.1068 0.8655 0.0000
vt 0.7572 0.0000 0.0000
vt 0.7572 0.1068 0.0000
vt 0.6298 0.1068 0.0000
vt 0.6298 0.0000 0.0000
vt 0.1068 0.9867 0.0000
vt 0.0000 0.9867 0.0000
vt 0.0000 0.9367 0.0000
vt 0.1068 0.9367 0.0000
vt 0.9058 0.0000 0.0000
vt 0.9058 0.1068 0.0000
vt 0.7784 0.1068 0.0000
vt 0.7784 0.0000 0.0000
vt 0.4894 0.3172 0.0000
vt 0.4894 0.3422 0.0000
vt 0.0000 0.3422 0.0000
vt 0.0000 0.3172 0.0000
vt 1.0000 0.4348 0.0000
vt 0.5106 0.4348 0.0000
vt 0.5106 0.4098 0.0000
vt 1.0000 0.4098 0.0000
vt 0.6380 0.8714 0.0000
vt 0.1486 0.8714 0.0000
vt 0.1486 0.8557 0.0000
vt 0.6380 0.8557 0.0000
vt 0.7971 0.6106 0.0000
vt 0.7721 0.6106 0.0000
vt 0.7721 0.5950 0.0000
vt 0.7971 0.5950 0.0000
vt 0.6380 0.9452 0.0000
vt 0.1486 0.9452 0.0000
vt 0.1486 0.9295 0.0000
vt 0.6380 0.9295 0.0000
vt 0.6843 0.7238 0.0000
vt 0.6592 0.7238 0.0000
vt 0.6592 0.7082 0.0000
vt 0.6843 0.7082 0.0000
vt 0.4894 0.5487 0.0000
vt 0.4894 0.5737 0.0000
vt 0.0000 0.5737 0.0000
vt 0.0000 0.5487 0.0000
vt 0.4894 0.5274 0.0000
vt 0.0000 0.5274 0.0000
vt 0.0000 0.5024 0.0000
vt 0.4894 0.5024 0.0000
vt 1.0000 0.5180 0.0000
vt 0.5106 0.5180 0.0000
vt 0.5106 0.5024 0.0000
vt 1.0000 0.5024 0.0000
vt 0.6843 0.7976 0.0000
vt 0.6592 0.7976 0.0000
vt 0.6592 0.7820 0.0000
vt 0.6843 0.7820 0.0000
vt 1.0000 0.5643 0.0000
vt 0.5106 0.5643 0.0000
vt 0.5106 0.5487 0.0000
vt 1.0000 0.5487 0.0000
vt 0.6843 0.7607 0.0000
vt 0.6592 0.7607 0.0000
vt 0.6592 0.7451 0.0000
vt 0.6843 0.7451 0.0000
vt 0.4894 0.4561 0.0000
vt 0.4894 0.4811 0.0000
vt 0.0000 0.4811 0.0000
vt 0.0000 0.4561 0.0000
vt 1.0000 0.3885 0.0000
vt 0.5106 0.3885 0.0000
vt 0.5106 0.3635 0.0000
vt 1.0000 0.3635 0.0000
vt 0.6380 0.6869 0.0000
vt 0.1486 0.6869 0.0000
vt 0.1486 0.6713 0.0000
vt 0.6380 0.6713 0.0000
vt 0.6843 0.6869 0.0000
vt 0.6592 0.6869 0.0000
vt 0.6592 0.6713 0.0000
vt 0.6843 0.6713 0.0000
vt 0.6380 0.7238 0.0000
vt 0.1486 0.7238 0.0000
vt 0.1486 0.7082 0.0000
vt 0.6380 0.7082 0.0000
vt 0.6843 0.8714 0.0000
vt 0.6592 0.8714 0.0000
vt 0.6592 0.8557 0.0000
vt 0.6843 0.8557 0.0000
vt 0.4894 0.3635 0.0000
vt 0.4894 0.3885 0.0000
vt 0.0000 0.3885 0.0000
vt 0.0000 0.3635 0.0000
vt 1.0000 0.3422 0.0000
vt 0.5106 0.3422 0.0000
vt 0.5106 0.3172 0.0000
vt 1.0000 0.3172 0.0000
vt 0.6380 0.7976 0.0000
vt 0.1486 0.7976 0.0000
vt 0.1486 0.7820 0.0000
vt 0.6380 0.7820 0.0000
vt 0.9521 0.0156 0.0000
vt 0.9270 0.0156 0.0000
vt 0.9270 0.0000 0.0000
vt 0.9521 0.0000 0.0000
vt 0.6380 0.8345 0.0000
vt 0.1486 0.8345 0.0000
vt 0.1486 0.8188 0.0000
vt 0.6380 0.8188 0.0000
vt 0.7971 0.6488 0.0000
vt 0.7721 0.6488 0.0000
vt 0.7721 0.6331 0.0000
vt 0.7971 0.6331 0.0000
vt 0.4894 0.4098 0.0000
vt 0.4894 0.4348 0.0000
vt 0.0000 0.4348 0.0000
vt 0.0000 0.4098 0.0000
vt 1.0000 0.4811 0.0000
vt 0.5106 0.4811 0.0000
vt 0.5106 0.4561 0.0000
vt 1.0000 0.4561 0.0000
vt 0.6380 0.7607 0.0000
vt 0.1486 0.7607 0.0000
vt 0.1486 0.7451 0.0000
vt 0.6380 0.7451 0.0000
vt 0.6843 0.8345 0.0000
vt 0.6592 0.8345 0.0000
vt 0.6592 0.8188 0.0000
vt 0.6843 0.8188 0.0000
vt 0.6380 0.9083 0.0000
vt 0.1486 0.9083 0.0000
vt 0.1486 0.8926 0.0000
vt 0.6380 0.8926 0.0000
vt 0.6549 0.2718 0.0000
vt 0.6298 0.2718 0.0000
vt 0.6298 0.2561 0.0000
vt 0.6549 0.2561 0.0000
# 274 texture coords

g Plane001
s 1
f 1/1/1 2/2/2 3/3/3 4/4/4 
f 2/2/2 5/5/5 6/6/6 3/3/3 
f 5/5/5 7/7/7 8/8/8 6/6/6 
f 7/7/7 9/9/9 10/10/10 8/8/8 
f 4/4/4 3/3/3 11/11/11 12/12/12 
f 3/3/3 6/6/6 13/13/13 11/11/11 
f 6/6/6 8/8/8 14/14/14 13/13/13 
f 8/8/8 10/10/10 15/15/15 14/14/14 
f 12/12/12 11/11/11 16/16/16 17/17/17 
f 11/11/11 13/13/13 18/18/18 16/16/16 
f 13/13/13 14/14/14 19/19/19 18/18/18 
f 14/14/14 15/15/15 20/20/20 19/19/19 
f 17/17/17 16/16/16 21/21/21 22/22/22 
f 16/16/16 18/18/18 23/23/23 21/21/21 
f 18/18/18 19/19/19 24/24/24 23/23/23 
f 24/24/24 19/19/19 20/20/20 25/25/25 
f 26/26/26 27/27/27 28/28/28 29/29/29 
f 28/28/28 30/30/30 31/31/31 29/29/29 
f 30/30/30 32/32/32 33/33/33 31/31/31 
f 32/32/32 34/34/34 35/35/35 33/33/33 
f 9/9/9 36/36/36 37/37/37 10/10/10 
f 37/37/37 38/38/38 15/15/15 10/10/10 
f 38/38/38 39/39/39 20/20/20 15/15/15 
f 39/39/39 40/40/40 25/25/25 20/20/20 
f 36/36/36 26/26/26 29/29/29 37/37/37 
f 29/29/29 31/31/31 38/38/38 37/37/37 
f 31/31/31 33/33/33 39/39/39 38/38/38 
f 33/33/33 35/35/35 40/40/40 39/39/39 
f 1/1/1 4/4/4 41/41/41 42/42/42 
f 2/2/2 1/1/1 42/42/42 43/43/43 
f 5/5/5 2/2/2 43/43/43 44/44/43 
f 7/7/7 5/5/5 44/44/43 45/45/44 
f 28/28/28 27/27/27 46/46/45 47/47/46 
f 9/9/9 7/7/7 45/45/44 48/48/44 
f 4/4/4 12/12/12 49/49/41 41/41/41 
f 30/30/30 28/28/28 47/47/46 50/50/46 
f 12/12/12 17/17/17 51/51/41 49/49/41 
f 32/32/32 30/30/30 50/50/46 52/52/46 
f 17/17/17 22/22/22 53/53/47 51/51/41 
f 22/22/22 21/21/21 54/54/48 53/53/47 
f 21/21/21 23/23/23 55/55/48 54/54/48 
f 23/23/23 24/24/24 56/56/49 55/55/48 
f 35/35/35 34/34/34 57/57/50 58/58/48 
f 34/34/34 32/32/32 52/52/46 57/57/50 
f 27/27/27 26/26/26 59/59/43 46/46/45 
f 24/24/24 25/25/25 60/60/49 56/56/49 
f 36/36/36 9/9/9 48/48/44 61/61/43 
f 40/40/40 35/35/35 58/58/48 62/62/48 
f 26/26/26 36/36/36 61/61/43 59/59/43 
f 25/25/25 40/40/40 62/62/48 60/60/49 
s off
f 42/63/51 41/64/51 63/65/51 64/66/51 
f 43/67/52 42/68/52 64/69/52 65/70/52 
f 44/71/52 43/67/52 65/70/52 66/72/52 
f 45/73/52 44/71/52 66/72/52 67/74/52 
f 47/75/53 46/76/53 68/77/53 69/78/53 
f 48/79/54 45/73/54 67/74/54 70/80/54 
f 41/64/51 49/81/51 71/82/51 63/65/51 
f 50/83/53 47/75/53 69/78/53 72/84/53 
f 49/81/51 51/85/51 73/86/51 71/82/51 
f 52/87/53 50/83/53 72/84/53 74/88/53 
f 51/85/51 53/89/51 75/90/51 73/86/51 
f 53/91/55 54/92/55 76/93/55 75/94/55 
f 54/92/55 55/95/55 77/96/55 76/93/55 
f 55/95/55 56/97/55 78/98/55 77/96/55 
f 58/99/55 57/100/55 79/101/55 80/102/55 
f 57/103/53 52/87/53 74/88/53 79/104/53 
f 46/105/52 59/106/52 81/107/52 68/108/52 
f 56/97/56 60/109/56 82/110/56 78/98/56 
f 61/111/52 48/79/52 70/80/52 83/112/52 
f 62/113/55 58/99/55 80/102/55 84/114/55 
f 59/106/52 61/111/52 83/112/52 81/107/52 
f 60/109/55 62/113/55 84/114/55 82/110/55 
s 2
f 85/115/57 86/116/57 87/117/57 88/118/57 
s 8
f 85/119/52 89/120/52 90/121/52 86/122/52 
s 16
f 86/123/53 90/124/53 91/125/53 87/126/53 
s 32
f 87/127/55 91/128/55 92/129/55 88/130/55 
s 64
f 88/131/51 92/132/51 89/133/51 85/134/51 
s 2
f 93/135/57 94/136/57 95/137/57 96/138/57 
s 8
f 93/139/52 97/140/52 98/141/52 94/142/52 
s 16
f 94/143/53 98/144/53 99/145/53 95/146/53 
s 32
f 95/147/55 99/148/55 100/149/55 96/150/55 
s 64
f 96/151/51 100/152/51 97/153/51 93/154/51 
s 2
f 101/155/58 102/156/58 103/157/58 104/158/58 
s 4
f 105/159/57 106/160/57 107/161/57 108/162/57 
s 8
f 101/163/52 104/164/52 106/165/52 105/166/52 
s 16
f 104/167/53 103/168/53 107/169/53 106/170/53 
s 32
f 103/171/55 102/172/55 108/173/55 107/174/55 
s 64
f 102/175/51 101/176/51 105/177/51 108/178/51 
s 2
f 109/179/58 110/180/58 111/181/58 112/182/58 
s 4
f 113/183/57 114/184/57 115/185/57 116/186/57 
s 8
f 109/187/52 112/188/52 114/189/52 113/190/52 
s 16
f 112/191/53 111/192/53 115/193/53 114/194/53 
s 32
f 111/195/55 110/196/55 116/197/55 115/198/55 
s 64
f 110/199/51 109/200/51 113/201/51 116/202/51 
s 2
f 117/203/58 118/204/58 119/205/58 120/206/58 
s 4
f 121/207/57 122/208/57 123/209/57 124/210/57 
s 8
f 117/211/52 120/212/52 122/213/52 121/214/52 
s 16
f 120/215/53 119/216/53 123/217/53 122/218/53 
s 32
f 119/219/55 118/220/55 124/221/55 123/222/55 
s 64
f 118/223/51 117/224/51 121/225/51 124/226/51 
s 2
f 125/227/58 126/228/58 127/229/58 128/230/58 
s 4
f 129/231/57 130/232/57 131/233/57 132/234/57 
s 8
f 125/235/52 128/236/52 130/237/52 129/238/52 
s 16
f 128/239/53 127/240/53 131/241/53 130/242/53 
s 32
f 127/243/55 126/244/55 132/245/55 131/246/55 
s 64
f 126/247/51 125/248/51 129/249/51 132/250/51 
s 2
f 133/251/58 134/252/58 135/253/58 136/254/58 
s 4
f 137/255/57 138/256/57 139/257/57 140/258/57 
s 8
f 133/259/52 136/260/52 138/261/52 137/262/52 
s 16
f 136/263/53 135/264/53 139/265/53 138/266/53 
s 32
f 135/267/55 134/268/55 140/269/55 139/270/55 
s 64
f 134/271/51 133/272/51 137/273/51 140/274/51 
# 112 polygons

